# xmcd
#
# Track frame offsets:
#	150
#	10880
#	21337
#	31717
#	44702
#	56277
#	65217
#	76122
#	85580
#	95960
#	117287
#	128007
#	146287
#	157357
#	173325
#
# Disc length: 2615 seconds
#
# Revision: 0
# Processed by: cddbd v1.5.1PL0 Copyright (c) Steve Scherf et al.
# Submitted via: dBpowerAMP V4.0
#
DISCID=bf0a350f
DTITLE=Various Artist - The Natural Collection [CD 1)
DYEAR=1900
DGENRE=R&B
TTITLE0=Blueberry Hill - Fats Domino
TTITLE1=Hello Josephine - 
TTITLE2=I'm Walking - 
TTITLE3=Jambalaya - 
TTITLE4=Red Sails in the Sunset - 
TTITLE5=Walking to New Orleans - 
TTITLE6=Blue Monday - 
TTITLE7=I'm in Love Again - 
TTITLE8=Ain't That a Shame - 
TTITLE9=Please Don't Leave Me - 
TTITLE10=I'm Gonna Be a Wheel Someday - 
TTITLE11=Blues By Fats - 
TTITLE12=The Fat Man - 
TTITLE13=Deep in the Heart of Texas - 
TTITLE14=Domino Twist - 
EXTD=
EXTT0=
EXTT1=
EXTT2=
EXTT3=
EXTT4=
EXTT5=
EXTT6=
EXTT7=
EXTT8=
EXTT9=
EXTT10=
EXTT11=
EXTT12=
EXTT13=
EXTT14=
PLAYORDER=
